<svg xmlns="http://www.w3.org/2000/svg" width="169" height="30" fill="none"><path fill="#A28800" d="M22.42 5.02 36.7 8.64V4.98L22.42.01v5.01ZM22.42 11.89l14.28 1.28V9.5L22.42 6.64v5.25ZM13.44 17.79l23.29-.02V14.1l-23.29-1.11v4.8ZM13.46 23.75l23.24-1.3v-3.67l-23.25.29.01 4.68ZM13.48 29.7l23.23-2.49v-3.67l-23.25 1.47.02 4.69Z"/><path fill="#572700" d="M21.94 11.9a50.165 50.165 0 0 0-11.68-.19C3 12.34 0 13.45 0 13.45v-3.9a47.51 47.51 0 0 1 10.33-2.43 63.28 63.28 0 0 1 11.61-.47v5.25ZM21.93 5a56.48 56.48 0 0 0-11.67.77A48.27 48.27 0 0 0 0 8.49V4.83a104.47 104.47 0 0 1 10.33-3.4A52.34 52.34 0 0 1 21.93 0v5ZM13 25c-5.5-1-13-1.52-13-1.52v3.66l13 2.52V25ZM13 19.07A53.793 53.793 0 0 0 0 19v3.7c4.328.043 8.647.377 12.93 1H13v-4.63ZM13 13c-5.6-.28-13 1.48-13 1.48v3.66a90.698 90.698 0 0 1 12.93-.31H13V13Z"/><path fill="#fff" d="M44.45 7.4v10.65h-2.86V5.71h6.17V7.4h-3.31ZM53.12 13.18c-.374 0-.749-.024-1.12-.07v4.94h-2.87V5.88a34.55 34.55 0 0 1 3.75-.25c3.48 0 4.62 1.67 4.62 3.54 0 2.43-1.45 4.01-4.38 4.01Zm-.39-5.88a3.22 3.22 0 0 0-.74.08v4.22c.244.046.492.07.74.07 1.72 0 2-1.16 2-2.34a1.78 1.78 0 0 0-2-2.03ZM59.08 18.05V5.71h6.55V7.4h-3.7v3.34h3v1.62h-3v4h3.84v1.68l-6.69.01ZM76.7 18.05V9.59l-3.31 7.47h-.72l-3.25-7.49v8.48H67.3V5.71h3.36l3 6.61 2.91-6.61h3v12.34H76.7ZM87.23 18.05v-5.21H87c-.55 0-1.12.1-1.75 1.89l-1.15 3.32H81l1.36-2.94c.86-1.88 1.31-2.31 2-2.67v-.1a2.94 2.94 0 0 1-2.62-3.1c0-2.17 1.43-3.61 4.61-3.61.74 0 3.7.08 3.7.08v12.34h-2.82Zm0-10.65a3 3 0 0 0-.85-.09 1.91 1.91 0 0 0-1.87 2.07 1.82 1.82 0 0 0 1.74 2h1l-.02-3.98ZM97.84 18.05v-5.76a4.33 4.33 0 0 1-2.8 1c-3.2 0-3-2.72-3-3.38v-4.2h2.86v3.58c0 1.28.17 2.15 1.3 2.15a1.6 1.6 0 0 0 1.6-1V5.71h2.86v12.34h-2.82ZM109.77 18.05V9.28l-4 8.77h-2.91V5.71h2.86v8.38l4-8.38h2.9v12.34h-2.85ZM121.06 18.05v-5.49h-3.5v5.49h-2.86V5.71h2.86v5.1h3.5v-5.1h2.85v12.34h-2.85ZM133.72 8.72a2.898 2.898 0 0 0-2.44-1.47c-1 0-2.41 1.05-2.41 4.64 0 3.25 1.24 4.32 2.58 4.32a3.939 3.939 0 0 0 2.58-.79l.67 1.31a5.519 5.519 0 0 1-4.11 1.58c-1.79 0-4.65-1.41-4.65-6.28 0-5.1 3.25-6.47 5.51-6.47A4.607 4.607 0 0 1 135 6.93l-1.28 1.79ZM142.46 18.05l-1.48-4c-.52-1.41-.77-1.62-1.36-1.62h-.28v5.59h-2.85V5.71h2.85V11h.28c.67 0 .84-.64 1.36-1.86l.72-1.72a2.25 2.25 0 0 1 2.41-1.69h.83v2.03h-.26c-.72 0-1 .86-1.43 2.05-.43 1.19-.65 1.43-1.27 1.69v.1c.55.17 1 .57 1.67 2l2 4.42-3.19.03ZM153.82 18.05V9.28l-4 8.77h-2.91V5.71h2.86v8.38l4-8.38h2.89v12.34h-2.84ZM165.64 18.05V9.28l-4 8.77h-2.91V5.71h2.86v8.38l4-8.38h2.89v12.34h-2.84Zm-1.93-12.34a2.657 2.657 0 0 1-2.677-1.56c-.151-.337-.23-.701-.233-1.07h1.81a1.088 1.088 0 0 0 1.1 1 1.001 1.001 0 0 0 1.1-1h1.81a2.758 2.758 0 0 1-2.91 2.63ZM45.19 27l-.08-1h-2.84l-.08 1h-.54v-1.55H42a2.58 2.58 0 0 0 .6-1.45c.102-.568.159-1.143.17-1.72v-.57h2.49v3.73h.45V27h-.52Zm-.63-4.74h-1.18v.51c-.026.45-.086.898-.18 1.34a4.31 4.31 0 0 1-.45 1.32h1.85l-.04-3.17ZM47.11 23.83c0 1.31.7 1.7 1.34 1.7a1.75 1.75 0 0 0 1.07-.38l.21.43a2.35 2.35 0 0 1-1.53.51c-.91 0-1.83-.69-1.83-2.21 0-1.72 1.14-2.23 1.8-2.23 1.12 0 1.63.72 1.63 2v.18h-2.69Zm2-.68a.91.91 0 0 0-.89-1c-.24 0-.88.11-1 1.17h1.92l-.03-.17ZM52.27 26.15a1.16 1.16 0 0 1-1-.4V28h-.7v-5.22a9.522 9.522 0 0 0-.06-1l.68-.07.08.67a1.49 1.49 0 0 1 1.3-.71c.91 0 1.62.65 1.62 2.07.05 1.69-1.01 2.41-1.92 2.41Zm.16-3.92c-.85 0-1.11.8-1.11 1.52v1a.901.901 0 0 0 1 .89c.69 0 1.19-.45 1.19-1.9-.01-1.1-.51-1.51-1.08-1.51ZM55.73 23.83c0 1.31.7 1.7 1.34 1.7a1.75 1.75 0 0 0 1.07-.38l.21.43a2.35 2.35 0 0 1-1.53.51c-.91 0-1.83-.69-1.83-2.21 0-1.72 1.14-2.23 1.8-2.23 1.12 0 1.64.72 1.64 2v.18h-2.7Zm2-.68a.92.92 0 0 0-.9-1c-.24 0-.88.11-1 1.17h1.93l-.03-.17ZM60.54 26h-1.3v-4.28h1.19c.78 0 1.8 0 1.8 1a1 1 0 0 1-.8 1v.06a.93.93 0 0 1 .91.94c0 .99-.94 1.28-1.8 1.28Zm0-3.77a2.998 2.998 0 0 0-.55.06v1.28h.65c.73 0 .9-.33.9-.78s-.83-.55-1.04-.55l.04-.01ZM60.6 24H60v1.41c.209.073.43.1.65.08.9 0 1-.54 1-.81-.04-.52-.48-.68-1.05-.68ZM64.81 26.15c-1 0-1.81-.75-1.81-2.27 0-1.93 1.19-2.23 1.84-2.23.65 0 1.87.31 1.87 2.23 0 1.52-.92 2.27-1.9 2.27Zm0-4c-.4 0-1.09.12-1.09 1.71 0 1.17.49 1.74 1.09 1.74.6 0 1.19-.55 1.19-1.72 0-1.59-.77-1.71-1.16-1.71l-.03-.02ZM69.23 26.15c-1 0-1.81-.75-1.81-2.27 0-1.93 1.19-2.23 1.84-2.23.65 0 1.87.31 1.87 2.23 0 1.52-.92 2.27-1.9 2.27Zm0-4c-.4 0-1.09.12-1.09 1.71 0 1.17.49 1.74 1.09 1.74.6 0 1.12-.57 1.12-1.74.03-1.57-.7-1.69-1.09-1.69l-.03-.02ZM73.63 26.14c-1 0-1.77-.71-1.77-2.47 0-1.51.06-3.08 1.58-3.74.5-.22 1.45-.34 1.78-.55v.75c-.37.24-1.29.31-1.8.55a1.84 1.84 0 0 0-1 1.64h.07a1.53 1.53 0 0 1 1.32-.68c.63 0 1.73.24 1.73 2.17a2.07 2.07 0 0 1-1.91 2.33Zm.11-4c-.28 0-1.13.05-1.13 1.65 0 1.24.47 1.81 1.06 1.81.59 0 1.16-.57 1.16-1.74 0-1.57-.7-1.7-1.09-1.7v-.02ZM78.13 26.15a1.16 1.16 0 0 1-.95-.4V28h-.71v-5.22a7.348 7.348 0 0 0-.06-1l.69-.07.08.67a1.49 1.49 0 0 1 1.3-.71c.9 0 1.62.65 1.62 2.07 0 1.69-1.1 2.41-1.97 2.41Zm.16-3.92c-.86 0-1.11.8-1.11 1.52v1a.9.9 0 0 0 1 .89c.68 0 1.19-.45 1.19-1.9-.01-1.1-.5-1.51-1.08-1.51ZM83.59 26a2.219 2.219 0 0 1-.17-.66 1.47 1.47 0 0 1-1.39.75 1.112 1.112 0 0 1-1.11-1.24c0-1.28 1.06-1.45 1.71-1.47h.79v-.29c0-.76-.37-.88-.73-.88a1.77 1.77 0 0 0-1.22.62l-.33-.55a2.629 2.629 0 0 1 1.67-.59c1.31 0 1.31.9 1.31 1.44v.6a6.686 6.686 0 0 0 .13 2.27h-.66Zm-.21-2.22h-.61c-.53 0-1.16.1-1.16.89 0 .56.27.84.66.84.74 0 1.11-.81 1.11-1.32v-.41ZM86.8 26.14c-1 0-1.77-.71-1.77-2.47 0-1.51 0-3.08 1.57-3.74.5-.22 1.45-.34 1.78-.55l.05.75c-.36.24-1.29.31-1.79.55a1.88 1.88 0 0 0-1 1.64h.08a1.53 1.53 0 0 1 1.28-.68c.62 0 1.73.24 1.73 2.17a2.08 2.08 0 0 1-1.93 2.33Zm.1-4c-.28 0-1.12.05-1.12 1.65 0 1.24.47 1.81 1 1.81S88 25.05 88 23.88c0-1.59-.71-1.72-1.1-1.72v-.02ZM92.22 26a2.221 2.221 0 0 1-.17-.66 1.47 1.47 0 0 1-1.39.75 1.11 1.11 0 0 1-1.11-1.24c0-1.28 1.06-1.45 1.72-1.47h.78v-.29c0-.76-.37-.88-.72-.88a1.73 1.73 0 0 0-1.22.62l-.33-.55a2.58 2.58 0 0 1 1.66-.59c1.31 0 1.31.9 1.31 1.44v.6a6.691 6.691 0 0 0 .13 2.27h-.66ZM92 23.79h-.61c-.53 0-1.16.1-1.16.89 0 .56.27.84.66.84.74 0 1.11-.81 1.11-1.32v-.41ZM95.3 22.28V26h-.71v-3.72h-1.17v-.56h3v.56H95.3ZM98.45 26h-1.29v-4.28h.71v1.7s.44-.06.68-.06c1.31 0 1.66.6 1.66 1.26 0 1-.89 1.38-1.76 1.38Zm0-2.19h-.58v1.62h.64c.81 0 .95-.45.95-.89 0-.54-.4-.72-1.01-.72v-.01Zm2.26 2.19v-4.28h.71V26h-.71ZM103.82 26h-1.3v-4.28h1.19c.78 0 1.8 0 1.8 1a1.003 1.003 0 0 1-.81 1v.06a.933.933 0 0 1 .92.94c0 .99-.94 1.28-1.8 1.28Zm0-3.77a3.196 3.196 0 0 0-.56.06v1.28h.66c.73 0 .9-.33.9-.78s-.82-.55-1.04-.55l.04-.01Zm.1 1.78h-.66v1.41c.212.072.436.099.66.08.9 0 1-.54 1-.81-.03-.53-.48-.69-1.04-.69l.04.01ZM109 26a2.22 2.22 0 0 1-.17-.66 1.47 1.47 0 0 1-1.39.75 1.113 1.113 0 0 1-1.11-1.24c0-1.28 1.06-1.45 1.72-1.47h.78v-.29c0-.76-.37-.88-.72-.88a1.73 1.73 0 0 0-1.22.62l-.34-.55a2.63 2.63 0 0 1 1.67-.59c1.32 0 1.32.9 1.32 1.44v.6a6.761 6.761 0 0 0 .16 2.32L109 26Zm-.21-2.22h-.61c-.53 0-1.16.1-1.16.89 0 .56.27.84.66.84.74 0 1.11-.81 1.11-1.32v-.41ZM114 26.14c-1 0-1.77-.7-1.82-2.12h-.87v2h-.7v-4.3h.7v1.83h.88c.2-1.58 1.23-1.91 1.84-1.91.61 0 1.86.32 1.86 2.24.01 1.52-.89 2.26-1.89 2.26Zm0-4c-.4 0-1.11.13-1.11 1.72 0 1.17.51 1.74 1.11 1.74.6 0 1.11-.57 1.11-1.74.04-1.57-.69-1.7-1.11-1.7v-.02ZM122.08 27l-.08-1h-5.19v-4.28h.7v3.73h1.57v-3.73h.71v3.73h1.57v-3.73h.7v3.73h.56V27h-.54ZM126.12 26v-3.32l-2 3.33h-.71v-4.29h.71V25l2-3.31h.7V26h-.7ZM130.63 26v-3.32l-2 3.33h-.7v-4.29h.7V25l2-3.31h.71V26h-.71Zm-1-4.75a1.128 1.128 0 0 1-1.24-1.12h.61a.645.645 0 0 0 .67.6.628.628 0 0 0 .67-.6h.56a1.16 1.16 0 0 1-.372.83 1.152 1.152 0 0 1-.858.3l-.04-.01ZM136.93 26l-.61-1.26c-.28-.56-.5-.68-.87-.68h-.29V26h-.7v-4.28h.7v1.87h.2c.44 0 .55-.16.79-.7l.2-.46a1.173 1.173 0 0 1 1.16-.76v.63c-.25 0-.54 0-.81.71a1.084 1.084 0 0 1-.59.71v.05a1.385 1.385 0 0 1 .8.77l.76 1.47-.74-.01ZM139.89 26.15c-1 0-1.81-.75-1.81-2.27 0-1.93 1.2-2.23 1.85-2.23.65 0 1.86.31 1.86 2.23 0 1.52-.92 2.27-1.9 2.27Zm0-4c-.4 0-1.1.12-1.1 1.71 0 1.17.5 1.74 1.1 1.74.6 0 1.11-.57 1.11-1.74 0-1.57-.69-1.69-1.07-1.69l-.04-.02ZM146.37 26v-3.16l-1.4 2.7h-.2l-1.45-2.7V26h-.62l.09-4.29h.7l1.5 2.79 1.4-2.79h.61l.09 4.29h-.72ZM149.75 26.14c-1 0-1.77-.71-1.77-2.47 0-1.51.05-3.08 1.57-3.74.5-.22 1.45-.34 1.78-.55v.75c-.36.24-1.29.31-1.79.55a1.884 1.884 0 0 0-1 1.64h.08a1.532 1.532 0 0 1 1.32-.68c.62 0 1.73.24 1.73 2.17a2.072 2.072 0 0 1-.459 1.578 2.078 2.078 0 0 1-1.461.752Zm.1-4c-.28 0-1.12.05-1.12 1.65 0 1.24.47 1.81 1.05 1.81.58 0 1.16-.57 1.16-1.74 0-1.57-.7-1.7-1.09-1.7v-.02ZM155.32 26v-3.32l-2 3.33h-.71v-4.29h.71V25l2-3.31h.7V26h-.7ZM159.64 26v-2h-1.83v2h-.7v-4.28h.7v1.79h1.83v-1.79h.71V26h-.71ZM164 26a2.22 2.22 0 0 1-.17-.66 1.47 1.47 0 0 1-1.39.75 1.113 1.113 0 0 1-1.11-1.24c0-1.28 1.06-1.45 1.71-1.47h.79v-.29c0-.76-.37-.88-.73-.88a1.767 1.767 0 0 0-1.22.62l-.33-.55a2.63 2.63 0 0 1 1.67-.59c1.31 0 1.31.9 1.31 1.44v.6a6.69 6.69 0 0 0 .17 2.32L164 26Zm-.21-2.22h-.61c-.53 0-1.16.1-1.16.89 0 .56.27.84.66.84.74 0 1.11-.81 1.11-1.32v-.41ZM167.11 22.28V26h-.71v-3.72h-1.17v-.56h3v.56h-1.12Z"/></svg>