<svg xmlns="http://www.w3.org/2000/svg" width="141" height="24" fill="none"><g clip-path="url(#a)"><path fill="#0E9E2F" d="m18.762 4.057 11.95 2.925V4.024L18.762.008v4.049ZM18.762 9.608l11.95 1.034V7.678l-11.95-2.311v4.242ZM11.247 14.376l19.49-.016v-2.966l-19.49-.897v3.879ZM11.264 19.192l19.448-1.05v-2.966l-19.456.234.008 3.782ZM11.28 24l19.44-2.012v-2.965L11.264 20.21 11.28 24Z"/><path fill="#fff" d="M18.36 9.616a43.46 43.46 0 0 0-9.774-.153C2.511 9.972 0 10.869 0 10.869V7.717a40.948 40.948 0 0 1 8.645-1.963 54.824 54.824 0 0 1 9.715-.38v4.242ZM18.352 4.04a48.917 48.917 0 0 0-9.766.623A41.546 41.546 0 0 0 0 6.86V3.903a89.635 89.635 0 0 1 8.645-2.747A45.281 45.281 0 0 1 18.352 0v4.04ZM10.879 20.202C6.276 19.394 0 18.974 0 18.974v2.957l10.879 2.037v-3.766ZM10.879 15.41A46.61 46.61 0 0 0 0 15.353v2.99c3.622.035 7.236.305 10.82.808h.059V15.41ZM10.879 10.505C6.193 10.279 0 11.7 0 11.7v2.957a78.573 78.573 0 0 1 10.82-.25h.059v-3.903ZM37.198 5.98v8.606h-2.393V4.614h5.163V5.98h-2.77ZM44.453 10.65a7.87 7.87 0 0 1-.937-.056v3.992h-2.402V4.75c1.042-.122 2.09-.19 3.138-.202 2.913 0 3.867 1.35 3.867 2.86 0 1.965-1.214 3.241-3.666 3.241ZM44.127 5.9a2.787 2.787 0 0 0-.62.064v3.41c.205.038.412.057.62.057 1.44 0 1.674-.937 1.674-1.89a1.392 1.392 0 0 0-.056-.66 1.431 1.431 0 0 0-.356-.565 1.499 1.499 0 0 0-.58-.352 1.54 1.54 0 0 0-.682-.064ZM49.44 14.586V4.614h5.482V5.98h-3.097v2.699h2.511v1.309h-2.51v3.232h3.213v1.358l-5.599.008ZM64.186 14.586V7.75l-2.77 6.036h-.603l-2.72-6.053v6.853H56.32V4.614h2.812l2.51 5.342 2.436-5.342h2.51v9.972h-2.401ZM72.998 14.586v-4.21h-.193c-.46 0-.937.08-1.464 1.527l-.963 2.683h-2.594l1.138-2.376c.72-1.52 1.097-1.867 1.674-2.158v-.08a2.488 2.488 0 0 1-1.616-.829 2.324 2.324 0 0 1-.577-1.677c0-1.753 1.197-2.917 3.858-2.917.62 0 3.097.065 3.097.065v9.972h-2.36Zm0-8.606a2.596 2.596 0 0 0-.712-.073c-.218.004-.434.05-.633.138-.2.088-.378.214-.525.37a1.533 1.533 0 0 0-.328.542c-.07.2-.097.412-.078.623-.021.2 0 .4.064.592.063.191.165.368.302.52.136.15.303.274.49.36.188.087.392.136.6.144h.837l-.017-3.216ZM81.877 14.586V9.931a3.704 3.704 0 0 1-2.343.809c-2.678 0-2.51-2.198-2.51-2.732V4.614h2.393v2.893c0 1.035.142 1.738 1.088 1.738.283.02.565-.048.806-.194.24-.145.427-.36.533-.615V4.614h2.393v9.972h-2.36ZM91.86 14.586V7.499l-3.347 7.087h-2.435V4.614h2.394v6.772l3.347-6.772h2.427v9.972H91.86ZM101.309 14.586V10.15h-2.93v4.436h-2.393V4.614h2.394v4.121h2.929v-4.12h2.385v9.971h-2.385ZM111.903 7.046a2.39 2.39 0 0 0-.859-.852 2.492 2.492 0 0 0-1.183-.335c-.837 0-2.016.848-2.016 3.749 0 2.626 1.037 3.491 2.159 3.491a3.38 3.38 0 0 0 2.159-.638l.56 1.058c-.452.43-.99.764-1.582.984-.592.22-1.224.32-1.857.293-1.498 0-3.891-1.14-3.891-5.075 0-4.121 2.719-5.228 4.611-5.228a3.984 3.984 0 0 1 1.609.244c.512.19.976.485 1.361.863l-1.071 1.446ZM119.217 14.586l-1.239-3.232c-.435-1.14-.644-1.31-1.138-1.31h-.234v4.518h-2.385V4.614h2.385V8.89h.234c.561 0 .703-.517 1.138-1.503l.603-1.39c.11-.424.374-.795.745-1.045.37-.251.821-.365 1.271-.32h.695v1.64h-.218c-.602 0-.836.695-1.196 1.656-.36.962-.544 1.156-1.063 1.366v.08c.46.138.837.461 1.398 1.617l1.673 3.572-2.669.024ZM128.723 14.586V7.499l-3.347 7.087h-2.436V4.614h2.394v6.772l3.347-6.772h2.419v9.972h-2.377ZM138.615 14.586V7.499l-3.348 7.087h-2.435V4.614h2.393v6.772l3.348-6.772h2.418v9.972h-2.376ZM137 4.614a2.303 2.303 0 0 1-.911-.1 2.243 2.243 0 0 1-.791-.445 2.152 2.152 0 0 1-.539-.716 2.09 2.09 0 0 1-.195-.864h1.515c.019.222.125.429.295.579.171.15.395.232.626.229a.867.867 0 0 0 .646-.206.804.804 0 0 0 .274-.602h1.515a2.157 2.157 0 0 1-.219.85c-.13.266-.313.505-.54.703-.226.197-.491.35-.779.448-.288.098-.593.14-.897.124ZM37.817 21.818l-.067-.808h-2.377l-.067.808h-.451v-1.252h.292c.29-.331.465-.74.503-1.172.085-.459.132-.924.142-1.39v-.46h2.084v3.014h.376v1.26h-.435Zm-.527-3.83h-.988v.412a7.093 7.093 0 0 1-.15 1.083 3.4 3.4 0 0 1-.377 1.066h1.548l-.033-2.561ZM39.424 19.257c0 1.058.586 1.373 1.121 1.373.326-.003.64-.111.896-.307l.175.348a2.013 2.013 0 0 1-1.28.412c-.761 0-1.531-.558-1.531-1.786 0-1.39.954-1.802 1.506-1.802.937 0 1.364.582 1.364 1.616v.146h-2.251Zm1.674-.55a.709.709 0 0 0-.19-.562.76.76 0 0 0-.555-.246c-.201 0-.737.089-.837.946h1.607l-.025-.138ZM43.741 21.131a1.002 1.002 0 0 1-.46-.062.97.97 0 0 1-.376-.261v1.818h-.586v-4.218a7.45 7.45 0 0 0-.05-.808l.569-.057.067.542c.113-.18.274-.326.464-.427.191-.1.406-.151.623-.147.762 0 1.356.525 1.356 1.673.042 1.365-.845 1.947-1.607 1.947Zm.134-3.168c-.711 0-.929.647-.929 1.229V20a.706.706 0 0 0 .253.54.763.763 0 0 0 .584.18c.578 0 .996-.365.996-1.536-.008-.89-.427-1.22-.904-1.22ZM46.638 19.257c0 1.058.586 1.373 1.121 1.373.326-.003.64-.111.896-.307l.175.348a2.012 2.012 0 0 1-1.28.412c-.762 0-1.531-.558-1.531-1.786 0-1.39.954-1.802 1.506-1.802.937 0 1.372.582 1.372 1.616v.146h-2.26Zm1.674-.55a.72.72 0 0 0-.195-.562.77.77 0 0 0-.559-.246c-.2 0-.736.089-.837.946h1.616l-.026-.138ZM50.662 21.01h-1.088v-3.458h.996c.653 0 1.506 0 1.506.808a.79.79 0 0 1-.183.52.842.842 0 0 1-.486.288v.048c.205.005.4.087.542.229a.738.738 0 0 1 .22.531c0 .8-.787 1.034-1.507 1.034Zm0-3.046a2.585 2.585 0 0 0-.46.048v1.035h.544c.61 0 .753-.267.753-.63 0-.364-.695-.445-.87-.445l.033-.008Zm.05 1.43h-.502v1.14c.175.058.36.08.544.064.753 0 .837-.436.837-.654-.034-.42-.402-.55-.879-.55ZM54.236 21.131c-.836 0-1.514-.606-1.514-1.834 0-1.56.995-1.802 1.54-1.802.543 0 1.564.25 1.564 1.802 0 1.228-.77 1.834-1.59 1.834Zm0-3.232c-.334 0-.912.097-.912 1.382 0 .945.41 1.406.912 1.406.503 0 .996-.444.996-1.39 0-1.285-.644-1.382-.97-1.382l-.026-.016ZM57.935 21.131c-.837 0-1.515-.606-1.515-1.834 0-1.56.996-1.802 1.54-1.802s1.565.25 1.565 1.802c0 1.228-.77 1.834-1.59 1.834Zm0-3.232c-.335 0-.913.097-.913 1.382 0 .945.41 1.406.913 1.406.502 0 .937-.46.937-1.406.025-1.269-.586-1.366-.912-1.366l-.025-.016ZM61.617 21.123c-.837 0-1.481-.574-1.481-1.996 0-1.22.05-2.489 1.322-3.022.418-.178 1.213-.275 1.49-.444v.606c-.31.194-1.08.25-1.507.444a1.52 1.52 0 0 0-.611.549 1.448 1.448 0 0 0-.226.776h.059c.12-.174.285-.316.479-.412.193-.097.408-.144.626-.137.527 0 1.447.194 1.447 1.753.03.227.013.456-.053.676-.065.219-.175.423-.325.599-.15.176-.335.321-.545.426a1.78 1.78 0 0 1-.675.182Zm.092-3.232c-.234 0-.946.04-.946 1.333 0 1.002.394 1.463.887 1.463.494 0 .971-.46.971-1.406 0-1.269-.586-1.374-.912-1.374v-.016ZM65.383 21.131a1.002 1.002 0 0 1-.437-.072.97.97 0 0 1-.358-.251v1.818h-.594v-4.218c.002-.27-.015-.54-.05-.808l.577-.057.067.542a1.23 1.23 0 0 1 .465-.427c.19-.1.405-.151.623-.147.753 0 1.355.525 1.355 1.673 0 1.365-.92 1.947-1.648 1.947Zm.134-3.168c-.72 0-.93.647-.93 1.229V20a.706.706 0 0 0 .253.54.762.762 0 0 0 .585.18c.569 0 .995-.365.995-1.536-.008-.89-.418-1.22-.903-1.22ZM69.952 21.01a1.747 1.747 0 0 1-.143-.533c-.114.197-.284.36-.49.467-.206.107-.44.155-.673.139a.957.957 0 0 1-.698-.299.89.89 0 0 1-.23-.703c0-1.034.886-1.172 1.43-1.188h.661v-.234c0-.614-.31-.711-.61-.711a1.522 1.522 0 0 0-.563.15 1.475 1.475 0 0 0-.458.35l-.277-.444a2.25 2.25 0 0 1 1.398-.477c1.096 0 1.096.728 1.096 1.164v.485a5.225 5.225 0 0 0 .109 1.834h-.552Zm-.176-1.794h-.51c-.444 0-.971.081-.971.72 0 .452.226.678.552.678.62 0 .929-.654.929-1.066v-.332ZM72.638 21.123c-.836 0-1.48-.574-1.48-1.996 0-1.22 0-2.489 1.313-3.022.418-.178 1.213-.275 1.49-.444l.041.606c-.3.194-1.079.25-1.497.444-.25.128-.46.319-.607.552-.148.233-.227.5-.23.773h.067c.117-.17.277-.309.464-.405.186-.096.395-.145.607-.144.519 0 1.448.194 1.448 1.753.029.228.01.458-.057.678-.067.22-.18.424-.33.6a1.73 1.73 0 0 1-.55.425 1.789 1.789 0 0 1-.678.18Zm.084-3.232c-.234 0-.937.04-.937 1.333 0 1.002.393 1.463.837 1.463.443 0 1.02-.445 1.02-1.39 0-1.285-.593-1.39-.92-1.39v-.016ZM77.173 21.01a1.743 1.743 0 0 1-.142-.533c-.114.197-.284.36-.49.467-.206.107-.44.155-.673.139a.958.958 0 0 1-.699-.299.89.89 0 0 1-.23-.703c0-1.034.887-1.172 1.44-1.188h.652v-.234c0-.614-.31-.711-.602-.711a1.488 1.488 0 0 0-.564.148 1.44 1.44 0 0 0-.457.353l-.276-.445c.39-.311.882-.48 1.389-.477 1.096 0 1.096.728 1.096 1.164v.485a5.224 5.224 0 0 0 .109 1.834h-.553Zm-.184-1.786h-.51c-.444 0-.97.081-.97.72 0 .452.225.678.551.678.62 0 .93-.654.93-1.066v-.332ZM79.751 18.004v3.006h-.594v-3.006h-.98v-.452h2.511v.452h-.937ZM82.387 21.01h-1.08v-3.458h.595v1.373s.368-.048.569-.048c1.096 0 1.389.485 1.389 1.018 0 .808-.745 1.115-1.473 1.115Zm0-1.77h-.485v1.31h.535c.678 0 .795-.364.795-.72 0-.436-.334-.581-.845-.581v-.008Zm1.891 1.77v-3.458h.595v3.458h-.595ZM86.88 21.01h-1.087v-3.458h.996c.653 0 1.506 0 1.506.808a.79.79 0 0 1-.186.523.843.843 0 0 1-.492.285v.048a.802.802 0 0 1 .548.226.751.751 0 0 1 .222.534c0 .8-.787 1.034-1.506 1.034Zm0-3.046c-.156.003-.313.019-.468.048v1.035h.552c.611 0 .754-.267.754-.63 0-.364-.687-.445-.87-.445l.033-.008Zm.085 1.438h-.553v1.14c.178.057.366.08.552.064.754 0 .837-.436.837-.654-.025-.429-.401-.558-.87-.558l.034.008ZM91.216 21.01a1.744 1.744 0 0 1-.142-.533c-.114.197-.284.36-.49.467-.206.107-.44.155-.673.139a.957.957 0 0 1-.699-.299.869.869 0 0 1-.23-.703c0-1.034.887-1.172 1.44-1.188h.652v-.234c0-.614-.31-.711-.602-.711a1.487 1.487 0 0 0-.564.148 1.442 1.442 0 0 0-.457.353l-.285-.445a2.25 2.25 0 0 1 1.398-.477c1.104 0 1.104.728 1.104 1.164v.485a5.292 5.292 0 0 0 .134 1.875l-.586-.04Zm-.175-1.794h-.51c-.444 0-.972.081-.972.72 0 .452.226.678.553.678.619 0 .929-.654.929-1.066v-.332ZM95.4 21.123c-.837 0-1.48-.566-1.523-1.713h-.728v1.616h-.585v-3.474h.585v1.478h.737c.167-1.277 1.029-1.543 1.54-1.543.51 0 1.556.258 1.556 1.81.008 1.228-.745 1.826-1.582 1.826Zm0-3.232c-.334 0-.928.105-.928 1.39 0 .945.426 1.406.928 1.406s.93-.46.93-1.406c.033-1.269-.578-1.374-.93-1.374v-.016ZM102.162 21.818l-.067-.808h-4.343v-3.458h.586v3.014h1.314v-3.014h.594v3.014h1.314v-3.014h.585v3.014h.469v1.252h-.452ZM105.543 21.01v-2.683l-1.673 2.691h-.595v-3.466h.595v2.65l1.673-2.675h.586v3.483h-.586ZM109.317 21.01v-2.683l-1.674 2.691h-.585v-3.466h.585v2.65l1.674-2.675h.594v3.483h-.594Zm-.837-3.838a.978.978 0 0 1-.726-.232.913.913 0 0 1-.311-.673h.51c.011.135.075.26.18.35.104.091.241.139.381.134a.544.544 0 0 0 .385-.128.5.5 0 0 0 .175-.356h.469a.912.912 0 0 1-.311.67.97.97 0 0 1-.718.243l-.034-.008ZM114.589 21.01l-.51-1.018c-.234-.453-.418-.55-.728-.55h-.243v1.568h-.586v-3.458h.586v1.51h.168c.368 0 .46-.129.661-.565l.167-.372a.951.951 0 0 1 .381-.46c.175-.111.381-.165.59-.154v.51c-.209 0-.452 0-.678.573a.877.877 0 0 1-.494.574v.04c.15.053.287.136.403.243.115.107.206.236.267.38l.636 1.187-.62-.008ZM117.066 21.131c-.836 0-1.514-.606-1.514-1.834 0-1.56 1.004-1.802 1.548-1.802s1.556.25 1.556 1.802c0 1.228-.769 1.834-1.59 1.834Zm0-3.232c-.334 0-.92.097-.92 1.382 0 .945.418 1.406.92 1.406.503 0 .929-.46.929-1.406 0-1.269-.577-1.366-.895-1.366l-.034-.016ZM122.489 21.01v-2.553l-1.171 2.181h-.168l-1.213-2.181v2.553h-.519l.075-3.466h.586l1.255 2.254 1.172-2.254h.51l.076 3.466h-.603ZM125.317 21.123c-.837 0-1.481-.574-1.481-1.996 0-1.22.042-2.489 1.314-3.022.418-.178 1.213-.275 1.489-.444v.606c-.301.194-1.079.25-1.498.444-.25.128-.459.319-.607.552a1.48 1.48 0 0 0-.229.773h.067c.12-.174.285-.316.478-.412.193-.097.409-.144.626-.137.519 0 1.448.194 1.448 1.753a1.626 1.626 0 0 1-.384 1.275c-.151.177-.337.321-.547.426-.21.104-.44.166-.676.182Zm.084-3.232c-.234 0-.937.04-.937 1.333 0 1.002.393 1.463.878 1.463.486 0 .971-.46.971-1.406 0-1.269-.586-1.374-.912-1.374v-.016ZM129.979 21.01v-2.683l-1.674 2.691h-.594v-3.466h.594v2.65l1.674-2.675h.586v3.483h-.586ZM133.594 21.01v-1.616h-1.532v1.616h-.585v-3.458h.585v1.446h1.532v-1.446h.594v3.458h-.594ZM137.243 21.01a1.743 1.743 0 0 1-.143-.533 1.21 1.21 0 0 1-.49.467 1.265 1.265 0 0 1-.673.139.955.955 0 0 1-.698-.299.87.87 0 0 1-.231-.703c0-1.034.887-1.172 1.431-1.188h.661v-.234c0-.614-.309-.711-.61-.711a1.518 1.518 0 0 0-.563.15 1.475 1.475 0 0 0-.458.35l-.277-.444c.395-.31.889-.479 1.398-.477 1.096 0 1.096.728 1.096 1.164v.485a5.221 5.221 0 0 0 .143 1.875l-.586-.04Zm-.176-1.794h-.51c-.444 0-.971.081-.971.72 0 .452.226.678.552.678.619 0 .929-.654.929-1.066v-.332ZM139.845 18.004v3.006h-.594v-3.006h-.98v-.452h2.511v.452h-.937Z"/></g><defs><clipPath id="a"><path fill="#fff" d="M0 0h141v24H0z"/></clipPath></defs></svg>