<svg xmlns="http://www.w3.org/2000/svg" width="21" height="21" fill="none"><path fill="#0E9E2F" fill-rule="evenodd" d="M17.5 2.625h-14A2.623 2.623 0 0 0 .884 5.25l-.009 10.5A2.63 2.63 0 0 0 3.5 18.374h14a2.63 2.63 0 0 0 2.625-2.625V5.25A2.63 2.63 0 0 0 17.5 2.625ZM4.799 7.875a.875.875 0 0 1 .903-1.499l4.772 2.876 4.98-3a.876.876 0 0 1 .907 1.5l-5.852 3.551-.006.01L4.8 7.874Z" clip-rule="evenodd"/><mask id="a" width="21" height="17" x="0" y="2" maskUnits="userSpaceOnUse" style="mask-type:luminance"><path fill="#fff" fill-rule="evenodd" d="M17.5 2.625h-14A2.623 2.623 0 0 0 .884 5.25l-.009 10.5A2.63 2.63 0 0 0 3.5 18.374h14a2.63 2.63 0 0 0 2.625-2.625V5.25A2.63 2.63 0 0 0 17.5 2.625ZM4.799 7.875a.875.875 0 0 1 .903-1.499l4.772 2.876 4.98-3a.876.876 0 0 1 .907 1.5l-5.852 3.551-.006.01L4.8 7.874Z" clip-rule="evenodd"/></mask><g mask="url(#a)"><path fill="#0E9E2F" d="M0 0h21v21H0z"/></g></svg>