<svg xmlns="http://www.w3.org/2000/svg" width="37" height="13" fill="none"><path fill="#C5C5C5" fill-rule="evenodd" d="M31.322 2.457v1.619h3.396v.43h-3.396v2.62h-.636V.465h-1.104v.947H1.941V.465H.838v9.634h2.218l.836 1.717h.441a1.583 1.583 0 1 1 3.167 0h.557a1.582 1.582 0 1 1 3.166 0h.549l.836-1.717h9.58l.836 1.717h1.114a1.583 1.583 0 1 1 3.167 0h4.197a1.582 1.582 0 0 1 3.166-.02c.735-.055 1.799-.16 1.799-.987v-6.05c0-1.359-4.05-2.19-5.146-2.302ZM11.246 8.464H3.732v.62h7.514v-.62Zm9.032 0h-7.515v.62h7.515v-.62Zm10.249.592h-5.74l-1.448.552h7.188v-.552Zm.74-1.206h-2.24V8.4h2.24V7.85Zm-25.35 2.783a1.183 1.183 0 1 0 0 2.366 1.183 1.183 0 0 0 0-2.366Zm3.723 0a1.183 1.183 0 1 0 0 2.366 1.183 1.183 0 0 0 0-2.366Zm16.082 0a1.183 1.183 0 1 0 0 2.366 1.183 1.183 0 0 0 0-2.366Zm7.364 0a1.183 1.183 0 1 0 0 2.366 1.183 1.183 0 0 0 0-2.366Zm2.89-2.11V5.548h-2.023c-1.137 0-1.676 1.555 0 2.197l2.023.778Z" clip-rule="evenodd"/></svg>