<svg xmlns="http://www.w3.org/2000/svg" width="39" height="21" fill="none"><path fill="#C5C5C5" d="M21.824 15.888h6.287v2.08h-6.287v-2.08ZM22.023 13.216h2.673v2.326h-2.673v-2.326ZM25.241 13.216h2.673v2.326H25.24v-2.326ZM18.658 13.216h2.673v2.326h-2.673v-2.326ZM15.39 13.216h2.672v2.326H15.39v-2.326ZM15.242 15.888h6.287v2.08h-6.287v-2.08ZM4.847 13.166h.89v.94h-.89v-.94ZM6.334 13.166h.89v.94h-.89v-.94ZM7.768 14.652h.89v.94h-.89v-.94ZM6.334 14.652h.89v.94h-.89v-.94ZM4.847 14.652h.89v.94h-.89v-.94ZM7.768 13.166h.89v.94h-.89v-.94ZM9.253 13.166h.89v.94h-.89v-.94ZM9.253 14.652h.89v.94h-.89v-.94Z"/><path fill="#C5C5C5" d="M29.745 16.483c0 1.04-.693 1.88-1.485 1.88h-8.266v2.03h16.78v-.99l1.881-2.92h-8.91Zm5.693 1.88c-.297 0-.495-.296-.495-.643 0-.347.247-.644.495-.644.297 0 .495.297.495.644 0 .396-.248.644-.495.644Z"/><path fill="#C5C5C5" d="M14.846 18.364c-.05 0 0 0 0 0-.89 0-1.633-.842-1.782-1.881h-1.633v-4.9H7.42l-.05-5.89h1.634v-.941H7.372V2.87h1.485v-.446H7.372V0h-.297v2.425h-.743v.446h.743l-.1 8.712h-.791v-1.486H4.897v1.486H2.47v4.9H.838l.693 2.92.247.99h27.026v-2.03H14.846ZM4.303 15.64h-.89v-.94h.89v.94Zm0-1.534h-.89v-.94h.89v.94Zm1.436 1.534h-.891v-.94h.89v.94Zm0-1.534h-.891v-.94h.89v.94Zm1.484 1.534h-.89v-.94h.89v.94Zm0-1.534h-.89v-.94h.89v.94ZM8.66 15.64h-.89v-.94h.89v.94Zm0-1.534h-.89v-.94h.89v.94Zm1.485 1.534h-.89v-.94h.89v.94Zm0-1.534h-.89v-.94h.89v.94Z"/></svg>