<svg xmlns="http://www.w3.org/2000/svg" width="54" height="19" fill="none"><path fill="#C5C5C5" fill-rule="evenodd" d="M46.137 3.015v2.45h5.14v.652h-5.14v3.965h-.963V0h-1.67v1.434H1.669V0H0v14.58h3.357l1.265 2.6h.668a2.395 2.395 0 0 1 2.396-2.397 2.395 2.395 0 0 1 2.397 2.397h.843a2.394 2.394 0 0 1 2.396-2.397 2.395 2.395 0 0 1 2.396 2.397h.83l1.266-2.6h14.498l1.266 2.6h1.686a2.395 2.395 0 0 1 2.397-2.397 2.395 2.395 0 0 1 2.397 2.397h6.352a2.394 2.394 0 0 1 2.396-2.397 2.394 2.394 0 0 1 2.396 2.366c1.112-.082 2.722-.242 2.722-1.494V6.498c0-2.055-6.129-3.314-7.788-3.483Zm-30.384 9.092H4.38v.939h11.373v-.94Zm13.67 0H18.048v.939h11.373v-.94Zm15.51.896h-8.687l-2.19.835h10.877v-.835Zm1.122-1.826h-3.392v.834h3.392v-.834ZM7.687 15.39a1.79 1.79 0 1 0 0 3.581 1.79 1.79 0 0 0 0-3.581Zm5.635 0a1.79 1.79 0 1 0 0 3.581 1.79 1.79 0 0 0 0-3.581Zm24.34 0a1.79 1.79 0 1 0 0 3.58 1.79 1.79 0 0 0 0-3.58Zm11.144 0a1.79 1.79 0 1 0 0 3.581 1.79 1.79 0 0 0 0-3.581Zm4.375-3.195V7.693H50.12c-1.721 0-2.538 2.353 0 3.326l3.061 1.176Z" clip-rule="evenodd"/></svg>