<svg xmlns="http://www.w3.org/2000/svg" width="37" height="13" fill="none"><path fill="#C5C5C5" d="M29.769 10.092h2.569c-.347.274-.57.67-.57 1.084 0 .843.815 1.53 1.814 1.53 1 0 1.815-.687 1.815-1.53 0-.396-.164-.774-.51-1.084h1.63V9.54h-1.63V7.286H10.952V.851h-8.95v.793H6.67v3.44H3.877v3.804h5.525c.407.05.367.498-.02.533H.839v.671h3.364c-.326.274-.55.67-.55 1.084 0 .843.816 1.53 1.814 1.53 1 0 1.814-.687 1.814-1.53 0-.43-.224-.825-.55-1.084h2.711a.74.74 0 0 0-.04.188c0 1.378 1.346 2.513 2.957 2.513 1.61 0 2.935-1.118 2.935-2.513 0-.05-.02-.137-.02-.206h1.366c0 .086-.02.155-.02.206 0 1.378 1.345 2.513 2.956 2.513 1.61 0 2.936-1.118 2.936-2.513 0-.034-.021-.085-.041-.188h1.468c0 .086-.02.138-.02.188 0 1.378 1.344 2.513 2.956 2.513 1.61 0 2.935-1.118 2.935-2.513 0-.05-.02-.103-.041-.188"/><path fill="#C5C5C5" d="M27.485 1.855h5.404l1.998 2.53-1.998 2.53H11.543V1.839c1.426.052 1.325-.448 1.426-.81h8.89c.04.277 0 .826 1.121.826h4.505Z"/></svg>