<svg xmlns="http://www.w3.org/2000/svg" width="58" height="31" fill="none"><path fill="#C5C5C5" d="M31.765 24.047h9.514v3.147h-9.514v-3.147ZM32.065 20.002h4.045v3.521h-4.045v-3.521ZM36.934 20.002h4.045v3.521h-4.045v-3.521ZM26.97 20.002h4.045v3.521H26.97v-3.521ZM22.025 20.002h4.046v3.521h-4.046v-3.521ZM21.8 24.047h9.515v3.147h-9.514v-3.147ZM6.068 19.927h1.349v1.424H6.068v-1.424ZM8.316 19.927h1.349v1.424H8.316v-1.424ZM10.488 22.174h1.348v1.424h-1.348v-1.424ZM8.316 22.174h1.349v1.424H8.316v-1.424ZM6.068 22.174h1.349v1.424H6.068v-1.424ZM10.488 19.927h1.348v1.424h-1.348v-1.424ZM12.736 19.927h1.348v1.424h-1.348v-1.424ZM12.736 22.174h1.348v1.424h-1.348v-1.424Z"/><path fill="#C5C5C5" d="M43.75 24.946c0 1.574-1.048 2.847-2.247 2.847H28.992v3.071h25.396v-1.498l2.847-4.42H43.751Zm8.616 2.847c-.45 0-.75-.45-.75-.974 0-.525.375-.974.75-.974.45 0 .75.449.75.974-.001.6-.376.974-.75.974Z"/><path fill="#C5C5C5" d="M21.201 27.793c-.075 0 0 0 0 0-1.348 0-2.472-1.273-2.697-2.847h-2.472V17.53H9.964L9.89 8.615h2.472V7.191H9.89V4.345h2.248v-.674H9.889V0h-.45v3.671H8.317v.674H9.44L9.29 17.53h-1.2v-2.248H6.144v2.248h-3.67v7.417H0l1.049 4.42.374 1.498h40.904v-3.072H21.201Zm-15.957-4.12H3.896V22.25h1.348v1.423Zm0-2.323H3.896v-1.423h1.348v1.423Zm2.173 2.323H6.07V22.25h1.348v1.423Zm0-2.323H6.07v-1.423h1.348v1.423Zm2.247 2.323H8.316V22.25h1.348v1.423Zm0-2.323H8.316v-1.423h1.348v1.423Zm2.173 2.323H10.49V22.25h1.348v1.423Zm0-2.323H10.49v-1.423h1.348v1.423Zm2.248 2.323h-1.349V22.25h1.349v1.423Zm0-2.323h-1.349v-1.423h1.349v1.423Z"/></svg>