<svg xmlns="http://www.w3.org/2000/svg" width="803" height="799" fill="none"><g fill="#fff" opacity=".05"><path d="m409.547 402.422 47.292-16.955 51.753-24.087 49.077-.896 41.938-24.094 47.292-16.058v-.89l-48.181 15.168-41.938 21.412-50.864-.89-51.753 23.198-48.18 15.168-.897-58.886-.89-81.201 4.463-53.54-6.249-40.152-.89-57.996h-.89l-.896 57.996 4.462 40.152-3.566 51.753-2.677 82.986-.896 58.887-40.151-12.492-53.541-16.058-11.596-8.03h-16.955l-77.628-24.093-.896.89 76.737 26.77 16.065.897 10.705 8.029 54.43 18.735 39.263 14.278-20.528 30.336-12.492 21.417-30.336 40.151-20.521 30.337-21.417 30.343.896.89 22.308-29.446 22.307-30.336 31.227-37.477 14.278-21.416 22.308-29.446 18.741 16.955 16.949 38.372 30.342 33.013 13.382 15.168 20.521 26.771v-.896l-17.844-26.764-11.601-16.956-29.441-33.908-15.175-37.477-17.847-19.632Z"/><path d="M414.018 428.3c-12.492 0-22.307-5.352-28.557-16.955-7.139-14.278-1.786-28.556 16.955-41.048 8.926-6.249 16.956-8.03 23.198-6.249 7.14 2.676 12.492 9.815 16.059 22.307 3.566 13.382 3.566 24.093-.89 30.336-3.567 5.353-8.926 8.926-16.059 9.816-4.456.896-8.029 1.792-10.705 1.792l-.001.001Zm6.249-64.245c-5.353 0-10.706 2.677-16.955 7.14-17.844 11.601-24.094 25.873-16.955 39.262 8.029 14.278 20.521 19.63 37.476 16.058 7.139-1.786 12.492-4.463 16.058-9.815 4.463-6.25 4.463-16.956.89-30.337-3.566-11.602-8.029-19.63-15.168-21.416-1.78-.891-3.567-.891-5.347-.891l.001-.001Z"/><path d="M414.028 449.714c-26.77 0-44.614-11.602-55.32-34.8-5.353-13.382-5.353-24.984.89-36.585 6.249-10.706 17.844-21.417 34.799-29.446 16.955-8.926 31.234-10.706 41.938-5.353 11.602 5.353 20.521 18.741 26.77 39.263 5.353 21.416 4.463 38.365-3.566 49.077-6.249 8.926-16.955 14.278-33.014 16.058-3.572.897-8.035 1.787-12.498 1.787l.001-.001Zm9.816-108.86c-8.029 0-17.845 2.676-28.557 8.029-34.799 16.955-46.401 38.365-35.688 64.245 11.601 26.771 33.908 38.366 66.922 33.909 15.168-1.786 25.873-7.139 32.122-16.058 8.029-10.706 8.926-27.66 3.567-49.078-5.353-20.521-14.279-33.909-25.874-39.262-3.566-.89-8.029-1.787-12.492-1.787v.002Z"/><path d="M422.927 485.404c-11.602 0-23.198-3.566-35.689-10.706-29.445-18.741-49.966-38.365-61.569-60.672-12.492-24.094-5.353-48.181 22.307-72.274 27.66-24.094 56.216-32.123 84.766-23.198 29.446 8.925 47.292 29.445 55.321 62.458 8.029 33.014 0 60.673-23.198 83.878-12.492 13.375-26.771 20.514-41.938 20.514Zm-11.602-169.536c-20.521 0-41.048 8.926-61.569 26.771-27.66 24.093-34.8 47.291-22.308 70.488 12.492 22.307 32.123 41.937 61.57 60.672 28.557 16.956 54.43 14.278 76.737-8.925 23.198-23.198 31.234-50.864 23.198-83.877-8.029-33.013-25.873-53.541-55.32-62.459-8.03-1.774-15.169-2.67-22.308-2.67Z"/><path d="M422.046 507.717c-25.874 0-49.967-8.029-74.061-23.198-25.873-18.741-42.828-40.151-53.54-66.031-9.816-26.77-2.677-49.967 22.307-71.385 24.984-20.521 49.967-37.476 74.951-50.864 24.984-13.382 50.864-9.815 76.737 9.816 25.873 20.521 41.049 45.505 45.505 74.951 4.463 30.336-.89 58.893-16.955 83.877-15.168 26.77-36.585 40.151-66.031 41.938-3.56.896-6.237.896-8.913.896Zm0-219.504c-9.816 0-20.521 2.677-30.337 8.03-24.984 13.381-49.966 30.336-74.951 50.863-24.093 20.522-32.122 43.72-22.307 70.488 10.706 25.874 27.659 47.292 53.541 66.032 26.77 16.955 53.541 24.984 82.091 23.198 29.445-1.787 50.864-15.169 66.031-41.938 16.058-24.984 21.417-53.541 16.955-83.877-4.463-29.446-19.63-54.43-45.505-74.951-15.175-11.596-30.349-17.844-45.517-17.844l-.001-.001Z"/><path d="M430.095 535.373c-13.382 0-25.873-3.566-37.476-10.705-21.417-13.382-46.401-26.771-75.848-40.152-28.557-13.382-44.615-34.799-50.864-64.245-6.249-30.336 1.786-54.43 24.093-72.274 24.094-20.521 45.506-41.049 62.459-61.57 18.742-22.307 42.829-29.446 72.274-22.307 29.446 7.139 54.43 20.521 75.849 41.048 21.416 20.521 33.013 44.615 35.688 74.061 2.676 29.445-.89 57.106-9.815 83.877-8.926 26.77-26.771 47.291-56.217 61.569-13.381 7.127-27.653 10.7-40.145 10.7l.002-.002Zm-26.77-273.934c-20.521 0-36.586 8.029-50.864 24.984-16.955 20.522-38.366 41.049-62.459 61.57-22.307 17.845-30.336 41.938-24.093 72.274 6.249 29.446 22.307 49.967 50.863 64.245 29.446 13.382 54.43 26.771 75.848 40.152 23.198 14.278 49.967 14.278 77.628 0 29.446-14.278 47.292-34.799 56.216-61.57 8.926-26.77 12.492-54.43 9.816-83.877-2.676-29.446-14.278-53.541-35.689-74.06-21.416-20.521-46.4-33.909-75.848-41.049-7.145-1.774-14.278-2.67-21.416-2.67l-.002.001Z"/><path d="M409.549 560.356c-20.521 0-39.262-8.03-56.216-23.198-21.416-18.742-43.724-34.8-70.488-49.967-24.984-14.278-39.262-35.689-43.724-66.031-3.566-30.337 3.567-56.217 20.521-75.849 8.03-9.815 16.956-19.63 24.985-28.556 9.815-11.602 19.63-23.198 29.445-34.8 18.742-21.416 41.938-34.799 69.599-40.151 27.661-5.352 54.43-1.786 80.303 10.705 24.094 12.492 46.401 29.446 66.032 51.753 18.741 22.308 28.556 48.181 29.445 74.951.89 29.446-.89 57.107-6.249 82.98-5.353 27.66-20.521 49.078-45.505 64.246-25.874 15.168-52.644 25.873-79.414 31.233-5.347 1.786-12.486 2.683-18.735 2.683l.001.001Zm-.89-320.334c-8.029 0-16.058.891-24.093 2.677-27.66 5.353-50.864 18.741-69.599 40.151-9.816 11.602-19.631 23.198-29.446 34.8-8.029 9.815-16.955 19.63-24.984 28.556-16.955 19.631-24.094 45.506-20.521 75.848 4.463 30.337 18.741 51.753 43.724 66.032 26.77 15.168 49.077 31.233 70.488 49.967 21.416 19.63 46.401 26.77 74.951 20.521 27.659-5.353 53.54-16.058 79.414-31.234 24.984-15.168 40.151-36.585 45.505-64.245 5.353-25.873 7.139-53.541 6.249-82.98-.89-26.77-10.705-52.644-29.445-74.951-19.631-22.307-41.049-39.262-66.032-51.753-17.844-8.932-36.579-13.388-56.209-13.388l-.002-.001Z"/><path d="M419.375 584.451c-9.815 0-19.63-.89-29.445-3.567-26.771-7.139-49.967-18.741-72.274-37.476a894.743 894.743 0 0 0-64.245-50.864c-22.308-16.058-34.8-38.365-37.477-67.812-2.676-29.446 1.787-57.107 14.278-80.304 11.602-23.198 29.446-42.828 52.644-60.672 23.198-17.844 44.615-34.8 65.136-51.753 21.416-17.844 46.401-23.198 74.06-16.955 27.66 6.249 53.541 16.955 77.628 31.233 23.198 14.278 42.828 33.013 58.893 56.216 16.058 22.307 24.093 48.181 24.984 76.737.89 25.874-.89 54.43-4.463 83.877-3.566 28.557-16.058 50.864-38.365 67.813-22.307 16.955-46.401 31.233-72.274 42.829-16.058 7.126-32.123 10.699-49.078 10.699l-.002-.001ZM400.64 212.365c-19.63 0-37.476 6.249-52.643 19.63-20.521 16.955-41.938 33.909-65.136 51.753-23.198 17.845-41.049 37.477-52.644 60.673-12.491 23.198-16.955 49.967-14.278 80.303 2.677 29.446 15.168 51.753 37.476 67.813a890.697 890.697 0 0 1 64.246 50.864c22.307 18.741 45.505 30.336 72.274 37.476 26.77 7.139 52.643 4.463 78.523-7.139 25.873-11.602 49.967-25.873 72.274-42.829 22.307-16.955 34.8-39.262 38.366-67.812 3.566-29.446 5.352-57.996 4.462-83.877-.89-28.557-8.925-53.541-24.984-76.738-16.058-23.198-35.688-41.937-58.893-56.216-24.093-14.278-49.967-24.984-77.628-31.233-7.145-1.774-14.278-2.67-21.416-2.67l.001.002Z"/><path d="M406.868 612.112c-19.631 0-37.477-5.353-54.43-16.955-23.198-15.168-46.401-30.336-69.599-43.724-23.198-13.382-42.828-30.336-60.673-51.753-16.955-20.521-26.77-45.505-29.445-73.171-1.787-29.446.89-56.216 8.925-81.2 8.029-26.771 23.198-47.292 46.401-63.356 21.417-15.168 41.938-33.013 62.459-55.321 18.741-21.416 41.938-33.013 69.599-34.799 26.77-2.677 53.54.89 80.303 9.815 26.77 8.926 50.864 22.308 71.385 38.366 20.521 16.058 38.365 35.688 53.541 61.57 13.381 24.093 20.521 49.966 21.416 76.737 0 24.984-1.786 53.541-4.462 83.877-2.677 27.659-13.382 51.753-31.234 72.274-18.741 21.417-40.151 38.365-64.245 49.078-26.77 12.491-52.644 20.521-78.523 25.873-6.249 1.792-14.278 2.689-21.417 2.689h-.001Zm-8.029-420.27c-6.25 0-11.602 0-17.845.89-27.659 1.787-50.864 13.382-69.599 34.8-20.521 22.307-41.048 40.151-62.458 55.32-23.198 16.058-38.366 36.586-46.401 63.356-8.029 24.985-10.706 51.753-8.926 81.201 2.677 27.659 12.492 52.643 29.446 73.171 17.844 21.416 37.476 38.365 60.673 51.753 23.198 13.382 46.4 28.556 69.598 43.724 23.199 15.168 47.292 19.63 75.849 14.278 25.873-5.353 51.753-13.382 78.523-25.873 24.093-10.706 45.505-27.66 64.245-49.078 17.844-20.521 28.557-44.615 31.233-72.274 2.677-30.337 4.463-58.893 4.463-83.877-.89-26.771-8.029-52.644-21.416-76.738-15.169-25.873-33.014-45.505-53.541-61.569-20.521-16.058-44.615-29.446-71.385-38.366-20.521-7.145-41.938-10.718-62.459-10.718Z"/><path d="M408.666 635.308c-23.198 0-43.724-7.139-62.459-20.521-24.093-17.844-49.966-33.909-77.628-48.181-27.659-15.168-50.863-33.908-67.812-57.106-17.844-24.094-27.66-50.864-30.337-82.98-2.676-30.337 0-61.57 8.03-91.906 8.029-31.234 25.873-54.43 52.643-68.709 27.66-16.058 51.753-35.688 70.488-58.893 19.631-24.093 45.506-37.476 76.737-39.262 32.123-1.786 62.459 1.786 91.016 11.602 30.336 9.815 57.107 24.984 79.414 43.724 24.093 19.63 43.724 42.828 58.893 69.598 15.168 27.66 23.198 56.217 23.198 85.664 0 29.445-1.786 59.783-3.567 91.015v2.677c-2.676 32.122-15.168 58.893-36.585 79.414-22.308 21.416-47.292 39.262-74.061 52.643-26.77 14.279-56.216 24.094-87.443 29.446-7.145.884-14.284 1.774-20.527 1.774v.001Zm-15.168-468.454H378.33c-31.234 1.787-57.107 15.169-76.737 39.263-18.742 23.198-42.829 42.828-70.488 58.893-26.771 15.168-44.615 37.476-52.644 68.708-8.029 30.336-10.706 61.57-8.029 91.906 2.676 32.123 12.492 58.893 30.336 82.98 16.955 23.198 40.152 41.938 67.813 57.107 27.659 14.278 53.541 30.336 77.628 48.181 24.093 17.844 51.753 24.093 82.98 18.741 31.233-5.353 60.672-15.168 87.443-29.446 26.77-13.382 51.753-31.233 74.06-52.643 21.417-20.522 33.909-47.292 36.586-79.414v-2.677c1.786-31.233 3.566-61.57 3.566-91.015 0-29.446-8.029-57.996-23.198-85.664-15.168-26.77-34.799-49.966-58.893-69.598-22.307-18.735-49.071-33.014-79.414-43.72-24.087-7.139-49.967-11.601-75.841-11.601v-.001Z"/><path d="M383.667 729.002c-33.013 0-59.783-9.816-83.877-30.337-22.307-19.63-47.291-35.688-77.628-49.966-27.659-12.492-52.643-29.446-75.848-52.644-21.416-20.521-37.476-46.401-49.077-77.628-10.706-29.452-16.956-59.788-19.63-91.912-2.677-30.337-.89-61.57 4.462-93.693 5.353-32.122 16.058-59.783 33.013-86.552 16.058-25.873 37.476-48.181 65.136-64.245 25.873-16.058 49.078-35.689 69.599-60.673 19.63-24.984 45.505-39.262 77.628-43.724 31.233-4.463 61.569-5.353 94.581-3.566 32.123 1.786 62.459 8.029 91.016 19.63 29.445 10.706 57.106 25.873 82.09 44.615 24.094 17.844 46.401 39.262 66.922 65.136 21.417 26.77 36.586 53.54 46.401 81.2 10.706 28.556 16.058 58.893 16.955 91.015.89 30.337-.89 60.673-4.462 93.692-4.463 29.446-12.492 60.673-23.198 91.016-10.706 29.446-29.446 54.43-54.43 73.171-24.094 18.742-50.864 36.586-79.414 50.864-30.337 16.058-58.893 26.77-86.553 33.013-33.013 8.017-63.349 11.59-93.686 11.59v-.002Zm8.92-654.943c-22.308 0-43.724 1.786-65.136 4.463-33.013 4.462-57.996 18.741-77.628 43.724-19.631 24.984-43.724 44.614-69.599 60.672-27.659 16.058-49.078 38.366-65.136 64.245-16.955 26.771-27.66 54.43-33.013 86.553-5.353 32.122-7.14 63.356-4.463 93.692 2.677 32.123 8.926 62.459 19.63 91.906 11.602 31.234 27.66 57.107 49.078 77.628 23.198 23.198 48.181 40.152 75.849 52.644 30.336 14.278 55.32 30.336 77.627 49.967 24.094 20.521 50.864 30.336 83.878 30.336 29.445 0 60.672-3.566 93.692-11.602 27.659-6.249 56.216-16.955 86.552-33.013 28.557-14.278 55.321-32.123 79.414-50.864 24.985-18.741 43.724-43.724 54.43-73.171 10.706-30.336 18.741-61.57 23.198-91.015 3.567-33.014 5.353-63.356 4.463-93.693-.89-32.122-6.249-62.459-16.955-91.015-10.712-28.544-25.886-55.308-46.407-82.078-20.522-25.874-42.829-47.292-66.922-65.136-24.985-18.742-52.644-33.909-82.091-44.615-28.557-11.602-58.893-17.844-91.016-19.63h-29.445v.002Z"/><path d="M404.19 705.804c-22.308 0-43.724-3.567-66.032-11.602-28.556-9.816-55.32-24.984-80.303-46.401-25.873-22.307-50.864-40.151-76.737-56.216-26.77-16.955-46.401-41.049-57.996-71.385-11.602-31.233-18.741-62.459-21.416-93.692-2.677-31.234-.89-63.356 4.462-96.368 5.353-31.233 19.631-58.893 41.938-81.2 22.307-22.307 44.615-44.615 66.031-66.922 22.308-23.198 46.401-42.829 73.172-57.996 28.556-16.058 58.892-24.984 89.229-26.77 30.336-2.677 61.57 0 94.581 8.925 30.337 8.029 58.893 20.521 87.443 37.476 28.557 17.845 52.644 37.477 73.172 60.673 21.416 24.094 38.365 50.864 50.863 80.303 12.492 30.337 18.742 60.673 19.631 92.796 0 28.556-1.787 59.783-4.463 97.258-4.463 32.122-14.278 62.459-27.659 90.12-14.279 28.557-34.8 50.864-62.459 68.708-26.771 16.058-55.321 31.234-84.767 45.505-28.556 13.382-58.892 21.417-91.906 24.985-8.938.915-17.857 1.805-26.783 1.805l-.001-.002Zm-6.243-610.329c-7.139 0-14.278 0-21.417.89-31.233 1.787-60.673 10.706-89.229 26.771-26.771 15.168-50.864 34.799-73.171 57.996-21.417 22.307-43.724 44.614-66.032 66.922-23.198 23.198-36.585 49.077-41.937 81.2-5.353 33.013-7.14 65.136-4.463 96.367 2.676 31.234 9.815 62.459 21.417 93.693 11.601 30.336 31.233 54.43 57.995 71.385 25.874 16.058 50.864 33.909 76.738 56.216 24.984 21.416 51.753 36.585 80.303 46.401 31.233 10.705 61.569 14.278 92.795 9.815 33.013-3.566 62.459-11.601 91.906-24.984 29.446-14.278 57.996-29.446 84.766-45.505 27.66-17.845 48.181-40.152 62.459-68.708 13.382-27.66 23.198-57.996 27.66-90.12 2.676-37.477 4.463-68.709 4.463-97.259-.891-32.122-7.14-62.459-19.631-92.795-12.492-29.446-29.446-56.216-50.864-80.303-20.521-23.198-44.615-42.829-73.171-60.673-28.557-16.955-57.107-29.446-87.443-37.476-25.856-6.262-49.949-9.834-73.146-9.834l.002.001Z"/><path d="M405.099 680.816c-21.416 0-41.938-3.566-61.57-10.705-26.77-9.816-51.753-24.985-73.171-44.615-20.521-18.741-44.614-36.586-71.385-50.864-25.873-14.278-44.614-35.688-55.32-63.356-10.706-25.873-17.845-54.43-20.522-85.663-1.786-32.123-.89-61.57 4.463-88.339 4.463-28.556 16.955-54.43 38.366-74.951 9.815-8.925 19.63-18.741 29.445-28.556 10.706-10.706 22.308-21.417 33.014-31.234 21.416-19.63 43.723-37.476 67.812-54.43 24.094-16.955 50.864-25.873 81.2-27.659 30.337-1.786 59.784.89 87.443 8.925 27.66 7.139 54.43 18.742 80.304 33.909 27.659 16.955 49.966 34.799 67.812 55.321 19.631 22.307 35.689 47.291 47.292 74.06 10.705 24.984 16.955 53.541 17.844 84.766.89 30.337-.89 58.893-6.249 87.443-3.567 29.446-11.602 57.107-24.093 83.877-12.492 25.874-31.234 47.292-57.107 63.356a658.711 658.711 0 0 1-77.628 42.829c-25.873 12.492-53.541 20.521-83.877 24.093-8.011 1.793-16.039 1.793-24.075 1.793h.002Zm-10.705-560.36c-5.353 0-11.602 0-16.956.89-30.336 1.787-57.106 10.706-81.2 27.66-24.093 16.955-46.401 34.799-67.812 54.43-10.706 10.705-22.308 21.416-33.014 31.233-9.815 9.816-19.63 18.741-29.445 28.557-21.417 21.416-33.909 46.4-38.366 74.951-5.353 27.659-6.249 56.216-4.463 88.338 2.677 31.234 9.816 59.784 20.522 85.664 10.705 27.659 29.445 49.077 55.32 63.356 26.771 14.278 50.864 32.122 71.385 50.863 21.417 19.631 46.401 34.8 73.171 44.615 26.771 9.816 55.321 12.492 85.664 8.925 30.336-3.566 57.996-11.601 83.877-24.093a658.305 658.305 0 0 0 77.628-42.828c25.873-16.059 44.614-37.477 57.106-63.356 12.492-26.771 20.522-54.43 24.094-83.878 5.353-28.556 7.139-57.106 6.249-87.443-.89-31.233-7.139-59.783-17.844-84.766-11.602-26.77-27.66-51.753-47.292-74.06-17.844-20.521-40.151-38.366-67.812-55.321-25.874-15.168-52.644-26.77-80.304-33.908-22.32-7.152-45.522-9.828-70.507-9.828l-.001-.001Z"/><path d="M400.622 655.83h-15.168c-32.123-2.676-57.996-15.168-77.628-36.586-23.198-23.198-47.291-40.151-74.06-50.863-28.557-11.602-49.967-31.234-63.356-57.996-13.382-26.771-21.417-55.321-24.094-84.767-2.676-29.445-.89-59.783 5.353-90.119 5.353-30.337 21.417-54.43 46.401-70.488 24.093-16.058 46.401-35.689 66.031-59.784 18.741-23.198 41.938-40.152 70.488-50.864 29.446-9.815 58.893-13.382 87.443-8.925 28.557 3.566 57.107 11.601 85.663 24.984 28.557 12.492 52.644 29.446 73.172 49.967 21.416 20.521 38.365 44.614 52.643 72.274 14.278 28.556 20.521 57.106 20.521 85.663.891 25.873 0 54.43-3.566 88.339-2.676 30.336-12.492 57.995-29.446 82.091-16.955 25.873-38.365 44.614-65.135 58.892-27.66 15.169-55.321 26.771-82.091 36.586-22.314 7.139-47.298 11.596-73.172 11.596h.001Zm-3.573-513.068c-20.521 0-41.048 3.566-61.569 10.705-28.557 10.706-50.864 26.771-70.488 50.864-19.631 24.094-41.938 43.724-66.032 59.784-24.984 16.058-41.048 40.151-46.4 70.488-6.249 30.336-8.03 60.672-5.353 90.12 2.676 29.445 10.705 57.996 24.093 84.766 13.382 26.77 34.8 46.401 63.356 57.996 26.771 10.705 50.864 27.659 74.061 50.864 19.63 21.416 45.505 33.908 77.627 36.585 32.123 1.787 61.57-1.786 88.339-11.601 26.769-9.816 54.43-21.417 82.091-36.586 26.77-14.278 48.181-33.013 65.136-58.893 16.955-24.093 26.77-51.753 29.445-82.091 3.567-33.909 4.463-62.459 3.567-88.338 0-29.446-7.139-57.107-20.521-85.664-14.278-27.659-31.234-51.753-52.644-72.274-20.521-20.521-44.615-37.476-73.171-49.967-28.557-13.382-57.107-21.416-85.663-24.984-8.92-.877-17.845-1.774-25.874-1.774Z"/><path d="M402.395 751.311c-19.63 0-40.152-1.786-63.356-4.463-31.233-4.463-57.107-18.741-77.628-42.828-20.521-24.094-46.401-41.938-75.848-51.753-30.336-10.706-54.43-28.557-72.274-53.541-19.624-28.55-33.013-55.321-41.931-82.98-8.926-26.77-15.169-57.107-17.845-90.12-2.676-29.446-.89-59.784 4.463-91.016 5.353-29.445 14.278-57.995 26.77-88.338 12.492-29.446 33.014-50.864 61.57-64.245 29.446-13.382 51.753-33.909 67.813-61.57 16.955-28.556 40.151-45.505 70.488-53.54 29.445-8.926 58.893-14.279 91.015-16.956 31.234-2.676 61.57-.89 91.016 6.25 32.122 8.028 60.672 17.843 86.552 30.335 27.66 12.492 53.541 29.446 76.737 49.967 25.874 24.094 45.506 45.506 61.57 67.813 18.741 25.873 32.123 52.644 41.938 81.2 9.815 29.446 15.168 59.784 16.058 90.12 0 28.557-1.786 57.996-4.463 91.016-4.462 33.013-11.601 62.459-19.63 90.12-8.926 30.336-24.094 56.216-47.292 76.737-24.984 23.198-49.077 41.049-74.06 55.32a710.24 710.24 0 0 1-82.98 40.152c-26.77 10.706-56.216 17.844-89.229 20.521-9.822.903-19.637 1.799-29.452 1.799h-.002Zm0-702.235c-8.925 0-17.844 0-25.873.89-32.123 2.677-61.57 8.03-91.016 16.956-30.336 8.029-53.54 25.873-70.488 53.54-16.058 27.66-38.365 48.181-67.812 61.57-28.557 13.382-49.078 34.8-61.57 64.245-13.382 30.337-21.417 58.893-26.77 88.339-5.353 31.233-7.14 61.57-4.463 91.015 2.676 33.014 8.925 62.459 17.844 90.12 8.925 27.66 23.198 54.43 41.938 82.091 17.844 24.984 41.938 42.829 72.274 53.541 29.446 9.816 55.32 27.659 75.848 51.753 20.521 24.093 46.401 38.365 77.628 42.828 34.799 4.463 64.245 6.25 92.795 3.567 33.013-2.677 62.459-9.816 89.229-20.521a710.513 710.513 0 0 0 82.98-40.152c24.985-14.278 49.078-32.122 74.061-55.32 23.198-21.417 38.365-46.401 47.291-76.738 8.029-27.659 15.168-57.106 19.631-90.12 2.676-33.013 4.462-62.458 4.462-91.015-.89-31.233-6.249-60.673-16.058-90.12-9.815-28.557-23.198-54.43-41.937-81.2-16.058-22.308-35.689-43.724-61.57-67.813-23.198-20.521-49.078-37.476-76.737-49.967-25.874-12.491-54.43-22.307-86.553-30.336-22.301-4.475-43.719-7.152-65.136-7.152h.002Z"/><path d="M55.314 603.189c3.567-2.677 6.25-4.463 9.816-7.139-.89-.89-.89-1.787-1.786-2.677-3.567 1.787-7.14 2.677-10.706 4.463-16.955-28.557-29.446-58.893-38.365-91.015 7.139-2.677 14.278-6.25 22.307-8.926-8.03.89-16.058 1.786-23.198 2.677C4.456 468.449 0 436.326 0 402.416c8.03-.89 16.058-1.786 23.198-2.676-8.03-.89-16.058-1.787-23.198-2.677 0-33.013 4.463-66.031 12.492-98.155 8.023.902 16.058 1.792 23.191 2.683-7.139-2.677-14.278-6.25-22.307-8.926 8.926-32.123 21.417-62.459 37.476-91.015 3.567 1.786 7.14 2.676 10.706 4.462.89-.89.89-1.786 1.786-2.676-3.566-2.676-6.249-4.463-9.815-7.139 16.955-29.446 38.365-51.753 62.459-68.708 1.786-.89 3.566-2.677 5.353-3.567 3.566 2.677 7.139 5.353 11.601 8.926l-8.029-10.706c22.307-16.058 47.292-35.689 74.951-57.996.89-.89 1.786-1.786 3.567-2.676 2.676 3.566 5.352 7.139 8.925 11.601-1.786-4.462-3.566-8.925-5.353-13.381 27.66-22.308 57.107-37.477 87.443-46.401 2.677 7.139 6.249 14.278 8.926 22.307-.89-8.029-1.787-16.058-2.677-23.198C332.818 4.468 364.94.006 398.851.006c.89 8.023 1.786 16.052 2.676 23.192.89-8.03 1.787-16.058 2.677-23.198 33.013 0 66.031 4.463 98.155 12.492-.89 8.029-1.786 16.058-2.676 23.198 2.676-7.14 6.249-14.278 8.925-22.307 32.123 8.925 62.459 21.416 91.016 37.476-2.677 7.139-6.25 14.278-8.926 22.307 4.463-6.249 9.816-12.492 14.278-18.741 28.557 16.955 54.43 36.585 78.524 59.783-5.353 5.353-9.816 11.602-14.279 17.845 6.249-4.463 12.492-9.816 18.742-14.278 23.198 23.198 42.828 49.966 59.783 78.523-6.249 4.463-12.491 9.815-18.741 14.278 7.139-2.676 14.278-6.249 22.307-8.925 16.058 28.562 28.551 58.899 37.47 91.021-7.139 2.677-14.278 6.249-22.307 8.926 8.029-.89 16.058-1.787 23.198-2.677 8.029 32.123 12.492 64.246 12.492 98.156-8.029.89-16.058 1.786-23.198 2.676 8.029.89 16.058 1.787 23.198 2.677 0 24.093-5.353 57.106-13.382 97.258-7.139-.89-15.168-1.786-22.307-2.676 7.139 2.676 14.278 6.249 21.416 8.925-3.566 16.955-8.029 34.799-13.382 54.43-3.566 14.278-8.029 27.659-13.381 41.049-7.14-2.677-14.279-6.249-21.417-8.926-.89.89-.89 1.786-1.786 2.676 6.249 4.463 12.491 9.816 18.741 14.279-14.278 31.233-33.909 57.106-58.893 79.414-6.249-5.353-13.382-9.816-19.63-15.169l-1.787 1.787c5.353 6.249 9.816 12.492 15.168 19.63-11.601 9.816-24.984 18.742-39.262 25.874-16.058 8.925-32.123 16.955-46.401 24.093-5.353-6.249-9.815-12.492-15.168-19.63 2.676 7.139 6.249 14.278 8.925 22.307-37.476 18.741-67.812 31.233-91.015 37.476-2.676-7.139-6.249-14.278-8.926-22.307.89 8.029 1.787 16.058 2.677 23.198-32.123 8.029-64.245 12.492-98.156 12.492-.89-8.03-1.786-16.058-2.676-23.198-.89 8.029-1.786 16.058-2.676 23.198-33.014 0-66.032-4.463-98.156-12.492.89-8.029 1.787-16.058 2.677-23.198-2.677 7.139-6.249 14.278-8.926 22.307-33.013-8.925-59.783-22.307-82.091-39.262-1.786-1.787-4.463-3.567-6.249-5.353 1.786-5.353 4.463-10.706 6.249-15.168-3.566 4.463-6.249 8.925-9.815 12.492-20.521-16.059-45.506-34.8-73.172-56.217-1.786-.89-3.566-2.676-5.352-3.566 3.566-4.463 6.249-8.925 9.815-12.492-4.463 3.567-8.925 7.139-13.382 9.816-27.653-20.534-49.065-45.517-65.13-72.287v-.001Zm717.404-227.535c-.89-33.013-6.249-65.136-16.955-96.367-10.706-31.234-24.985-60.673-44.615-87.444-19.63-26.77-41.049-50.863-66.031-73.171-24.984-22.307-51.753-40.151-82.091-53.54-30.337-13.382-60.673-24.985-92.795-32.123-32.123-7.14-64.246-9.816-97.259-6.25-33.013 2.677-65.136 8.926-98.155 18.742-33.013 8.926-57.996 27.66-74.951 56.216-16.955 28.557-39.263 48.181-68.708 62.459-29.446 14.278-51.753 37.476-66.032 67.813-14.278 30.336-24.984 62.459-30.336 94.581-6.25 32.123-8.03 65.136-6.25 98.156 1.787 33.013 8.03 65.135 18.742 96.367 10.706 31.234 24.984 60.673 42.829 88.339 18.741 27.659 43.724 47.291 75.848 58.893 32.124 11.601 58.893 29.445 82.091 54.43 22.307 24.984 50.864 40.151 83.877 45.505 33.013 5.354 66.031 7.139 99.044 4.463 33.014-2.677 64.245-8.926 95.479-21.417 30.336-11.602 59.783-25.873 88.338-42.828 28.557-16.956 54.43-36.586 79.415-58.893 24.093-22.308 41.937-49.967 51.753-81.201 9.815-31.233 16.955-63.356 22.307-96.367 3.56-31.221 5.346-64.239 4.456-96.363h-.001Z"/></g></svg>